<?xml version="1.0" encoding="utf-8"?>
<!-- Generator: Adobe Illustrator 27.7.0, SVG Export Plug-In . SVG Version: 6.00 Build 0)  -->
<svg version="1.1" xmlns="http://www.w3.org/2000/svg" xmlns:xlink="http://www.w3.org/1999/xlink" x="0px" y="0px"
	 viewBox="0 0 250 380" style="enable-background:new 0 0 250 380;" xml:space="preserve">
<style type="text/css">
	.st0{display:none;}
	.st1{display:inline;fill:#607D8B;}
	.st2{display:inline;fill:#B9B9B9;}
	.st3{fill:#A96366;}
</style>
<g id="Layer_1" class="st0">
	<path class="st1" d="M168,5v151.5c-13.5-5.6-28.1-8.5-43-8.5c-62.3,0-113,50.7-113,113s50.7,113,113,113c14.9,0,29.5-2.9,43-8.5
		v8.5h70V5H168z M125,218c23.7,0,43,19.3,43,43c0,23.7-19.3,43-43,43c-23.7,0-43-19.3-43-43C82,237.3,101.3,218,125,218z"/>
	<path class="st2" d="M167.4,300.6C156.4,312.3,141,319,125,319c-32,0-58-26-58-58s26-58,58-58c16,0,31.4,6.7,42.4,18.4l1.5,1.6
		h46.9l-3.8-7.3c-17-32.5-50.3-52.7-86.9-52.7c-54,0-98,44-98,98c0,54,44,98,98,98c36.6,0,69.9-20.2,86.9-52.7l3.8-7.3h-46.9
		L167.4,300.6z"/>
</g>
<g id="Layer_1_copy">
	<path class="st3" d="M168,5v151.5c-13.5-5.6-28.1-8.5-43-8.5c-62.3,0-113,50.7-113,113s50.7,113,113,113c14.9,0,29.5-2.9,43-8.5
		v8.5h70V5H168z M167.4,221.4C156.4,209.7,141,203,125,203c-32,0-58,26-58,58s26,58,58,58c16,0,31.4-6.7,42.4-18.4l1.5-1.6h46.9
		l-3.8,7.3c-17,32.5-50.3,52.7-86.9,52.7c-54,0-98-44-98-98c0-54,44-98,98-98c36.6,0,69.9,20.2,86.9,52.7l3.8,7.3h-46.9L167.4,221.4
		z M168,261c0,23.7-19.3,43-43,43c-23.7,0-43-19.3-43-43c0-23.7,19.3-43,43-43C148.7,218,168,237.3,168,261z"/>
</g>
</svg>
