<?xml version="1.0" encoding="utf-8"?>
<!-- Generator: Adobe Illustrator 27.7.0, SVG Export Plug-In . SVG Version: 6.00 Build 0)  -->
<svg version="1.1" id="Layer_1" xmlns="http://www.w3.org/2000/svg" xmlns:xlink="http://www.w3.org/1999/xlink" x="0px" y="0px"
	 viewBox="0 0 250 380" style="enable-background:new 0 0 250 380;" xml:space="preserve">
<style type="text/css">
	.st0{fill:#933E45;}
	.st1{fill:#B9B9B9;}
	.st2{fill:#B2B1B1;}
</style>
<path class="st0" d="M168,5v151.5c-13.5-5.6-28.1-8.5-43-8.5c-62.3,0-113,50.7-113,113s50.7,113,113,113c14.9,0,29.5-2.9,43-8.5v8.5
	h70V5H168z M125,218c23.7,0,43,19.3,43,43s-19.3,43-43,43s-43-19.3-43-43S101.3,218,125,218z"/>
<path class="st1" d="M167.4,300.6C156.4,312.3,141,319,125,319c-32,0-58-26-58-58s26-58,58-58c16,0,31.4,6.7,42.4,18.4l1.5,1.6h46.9
	l-3.8-7.3c-17-32.5-50.3-52.7-86.9-52.7c-54,0-98,44-98,98s44,98,98,98c36.6,0,69.9-20.2,86.9-52.7l3.8-7.3h-46.9L167.4,300.6z"/>
<g>
	<path class="st0" d="M-264.1-8.6v140.7c-12.5-5.2-26.1-7.9-39.9-7.9c-57.9,0-104.9,47.1-104.9,104.9s47.1,104.9,104.9,104.9
		c13.9,0,27.4-2.7,39.9-7.9v7.9h65V-8.6H-264.1z M-304,189.2c22,0,39.9,17.9,39.9,39.9c0,22-17.9,39.9-39.9,39.9
		c-22,0-39.9-17.9-39.9-39.9C-344,207.1-326,189.2-304,189.2z"/>
	<path class="st2" d="M-264.7,265.9c-10.2,10.9-24.5,17.1-39.4,17.1c-29.7,0-53.9-24.2-53.9-53.9s24.2-53.9,53.9-53.9
		c14.9,0,29.2,6.2,39.4,17.1l1.4,1.5h43.5l-3.6-6.8c-15.8-30.2-46.7-48.9-80.7-48.9c-50.2,0-91,40.8-91,91c0,50.2,40.8,91,91,91
		c34,0,64.9-18.7,80.7-48.9l3.6-6.8h-43.5L-264.7,265.9z"/>
</g>
</svg>
